<svg width="58" height="58" viewBox="0 0 58 58" fill="none" xmlns="http://www.w3.org/2000/svg">
<path d="M42.484 19.4188C39.4849 17.0296 34.7475 16.625 34.5446 16.608C34.3903 16.5954 34.2358 16.6307 34.1026 16.7089C33.9694 16.7872 33.864 16.9045 33.8012 17.0447C33.7109 17.2458 33.6344 17.4528 33.572 17.664C35.9094 18.0233 38.1553 18.8235 40.1878 20.0212C40.2735 20.0719 40.3482 20.1389 40.4075 20.2185C40.4668 20.2981 40.5095 20.3885 40.5331 20.4846C40.5567 20.5806 40.5608 20.6804 40.545 20.778C40.5293 20.8756 40.4941 20.9692 40.4414 21.0532C40.3888 21.1372 40.3198 21.21 40.2384 21.2674C40.157 21.3247 40.065 21.3655 39.9675 21.3872C39.8701 21.409 39.7693 21.4114 39.6709 21.3942C39.5726 21.377 39.4786 21.3405 39.3946 21.287C36.5173 19.6869 33.2724 18.8464 29.972 18.8464C26.6716 18.8464 23.4267 19.6869 20.5494 21.287C20.4654 21.3387 20.372 21.3734 20.2744 21.3893C20.1769 21.4051 20.0772 21.4018 19.9809 21.3796C19.8847 21.3573 19.7938 21.3165 19.7135 21.2594C19.6332 21.2024 19.565 21.1302 19.5128 21.0471C19.4607 20.964 19.4256 20.8715 19.4096 20.775C19.3935 20.6784 19.3969 20.5797 19.4194 20.4844C19.4419 20.3892 19.4831 20.2992 19.5408 20.2197C19.5984 20.1402 19.6713 20.0728 19.7552 20.0212C21.7883 18.8265 24.0342 18.0294 26.371 17.6731C26.3069 17.4618 26.2314 17.254 26.1448 17.0507C26.0833 16.9085 25.978 16.7892 25.844 16.7097C25.71 16.6302 25.554 16.5946 25.3984 16.608C25.1955 16.622 20.4581 17.0266 17.4215 19.4439C15.8373 20.8985 12.6658 29.3813 12.6658 36.7157C12.6667 36.8454 12.7016 36.9728 12.7673 37.0851C14.9539 40.8898 20.9236 41.8857 22.2837 41.9288H22.307C22.4252 41.9295 22.542 41.9026 22.6477 41.8503C22.7534 41.798 22.8452 41.7217 22.9156 41.6277L24.2908 39.7544C22.2126 39.2922 20.2616 38.3856 18.5747 37.0981C18.425 36.9674 18.3339 36.7832 18.3214 36.586C18.309 36.3888 18.3762 36.1948 18.5083 36.0466C18.6403 35.8984 18.8265 35.8083 19.0257 35.7959C19.2249 35.7836 19.421 35.8501 19.5707 35.9808C19.6143 36.022 23.1062 38.9543 29.9725 38.9543C36.8388 38.9543 40.3419 36.0099 40.3774 35.9808C40.4516 35.9163 40.5378 35.8669 40.6312 35.8353C40.7246 35.8038 40.8234 35.7907 40.9219 35.797C41.0205 35.8032 41.1168 35.8286 41.2054 35.8717C41.294 35.9148 41.3731 35.9747 41.4383 36.0481C41.5035 36.1215 41.5535 36.2068 41.5853 36.2993C41.6172 36.3918 41.6304 36.4895 41.624 36.5871C41.6177 36.6846 41.5921 36.7799 41.5486 36.8676C41.505 36.9553 41.4445 37.0336 41.3704 37.0981C39.6835 38.3856 37.7325 39.2922 35.6542 39.7544L37.0295 41.6277C37.0998 41.7217 37.1916 41.798 37.2973 41.8503C37.4031 41.9026 37.5198 41.9295 37.638 41.9288H37.6613C39.0224 41.8857 44.9911 40.8898 47.1778 37.0851C47.2434 36.9728 47.2784 36.8454 47.2792 36.7157C47.2772 29.3813 44.1067 20.8985 42.484 19.4188ZM25.0809 33.7372C24.3332 33.6856 23.6365 33.3436 23.1425 32.7856C22.6485 32.2277 22.3974 31.4991 22.444 30.7587C22.3974 30.0182 22.6485 29.2896 23.1425 28.7317C23.6365 28.1737 24.3332 27.8317 25.0809 27.7801C25.8286 27.8317 26.5254 28.1737 27.0194 28.7317C27.5133 29.2896 27.7644 30.0182 27.7179 30.7587C27.7644 31.4991 27.5133 32.2277 27.0194 32.7856C26.5254 33.3436 25.8286 33.6856 25.0809 33.7372V33.7372ZM34.8621 33.7372C34.1144 33.6856 33.4176 33.3436 32.9237 32.7856C32.4297 32.2277 32.1786 31.4991 32.2251 30.7587C32.1786 30.0182 32.4297 29.2896 32.9237 28.7317C33.4176 28.1737 34.1144 27.8317 34.8621 27.7801C35.6098 27.8317 36.3066 28.1737 36.8005 28.7317C37.2945 29.2896 37.5456 30.0182 37.4991 30.7587C37.5456 31.4991 37.2945 32.2277 36.8005 32.7856C36.3066 33.3436 35.6098 33.6856 34.8621 33.7372V33.7372Z" fill="white"/>
<path d="M57.3978 57.3693H13.1999L0.601387 42.9562V1.15698H43.4523L57.3978 17.1191V57.3684V57.3693Z" stroke="white"/>
</svg>
