<svg width="39" height="29" viewBox="0 0 39 29" fill="none" xmlns="http://www.w3.org/2000/svg">
<path d="M33.4519 4.10105C30.1739 1.46705 24.9939 1.02005 24.7729 1.00105C24.6042 0.987095 24.4352 1.026 24.2895 1.11236C24.1439 1.19873 24.0287 1.32828 23.9599 1.48305C23.8611 1.7052 23.7773 1.93371 23.7089 2.16705C26.2641 2.56281 28.7196 3.44545 30.9419 4.76705C31.0339 4.82404 31.1137 4.89859 31.1768 4.98642C31.2399 5.07425 31.2851 5.17366 31.3098 5.27896C31.3345 5.38426 31.3382 5.4934 31.3207 5.60014C31.3033 5.70687 31.2649 5.80913 31.2079 5.90105C31.1509 5.99298 31.0764 6.07278 30.9886 6.13589C30.9007 6.19901 30.8013 6.24421 30.696 6.26891C30.5907 6.29361 30.4816 6.29733 30.3748 6.27985C30.2681 6.26237 30.1659 6.22405 30.0739 6.16705C26.9286 4.4002 23.3816 3.47216 19.7739 3.47216C16.1663 3.47216 12.6193 4.4002 9.47393 6.16705C9.382 6.22405 9.27975 6.26237 9.17301 6.27985C9.06628 6.29733 8.95714 6.29361 8.85184 6.26891C8.63917 6.21903 8.45503 6.0867 8.33993 5.90105C8.22482 5.7154 8.18818 5.49163 8.23807 5.27896C8.28795 5.06629 8.42028 4.88216 8.60593 4.76705C10.8287 3.44768 13.2842 2.56741 15.8389 2.17405C15.769 1.94046 15.6865 1.7108 15.5919 1.48605C15.5238 1.32913 15.4078 1.19775 15.2605 1.11066C15.1133 1.02356 14.9423 0.985202 14.7719 1.00105C14.5499 1.01705 9.37193 1.46405 6.05093 4.13405C4.31893 5.74105 0.851929 15.1111 0.851929 23.2121C0.852295 23.3552 0.889855 23.4958 0.960929 23.6201C3.35193 27.82 9.87793 28.9201 11.3609 28.9701H11.3869C11.5165 28.9703 11.6443 28.9398 11.7598 28.8813C11.8754 28.8227 11.9755 28.7377 12.0519 28.6331L13.5519 26.5641C11.2796 26.0535 9.14641 25.0521 7.30193 23.6301C7.14213 23.4846 7.04594 23.2821 7.03413 23.0664C7.02233 22.8506 7.09585 22.6389 7.23883 22.4769C7.38181 22.3148 7.58277 22.2155 7.79833 22.2004C8.01388 22.1853 8.22674 22.2556 8.39093 22.3961C8.43893 22.4411 12.2569 25.6801 19.7629 25.6801C27.2689 25.6801 31.1089 22.4281 31.1519 22.3961C31.3161 22.2558 31.5288 22.1858 31.7442 22.2011C31.9596 22.2164 32.1603 22.3159 32.3029 22.478C32.4456 22.6401 32.5187 22.8518 32.5066 23.0673C32.4944 23.2829 32.3979 23.485 32.2379 23.6301C30.3934 25.0521 28.2603 26.0535 25.9879 26.5641L27.4879 28.6331C27.5644 28.7377 27.6645 28.8227 27.78 28.8813C27.8956 28.9398 28.0234 28.9703 28.1529 28.9701H28.1789C29.6669 28.9221 36.1929 27.8231 38.5789 23.6201C38.65 23.4958 38.6876 23.3552 38.6879 23.2121C38.6929 15.1111 35.2259 5.74105 33.4519 4.10105ZM14.4249 19.9211C13.6075 19.8643 12.8458 19.4863 12.3064 18.8696C11.7669 18.2529 11.4935 17.4477 11.5459 16.6301C11.4935 15.8124 11.7669 15.0072 12.3064 14.3905C12.8458 13.7738 13.6075 13.3958 14.4249 13.3391C15.2423 13.3958 16.004 13.7738 16.5435 14.3905C17.083 15.0072 17.3564 15.8124 17.3039 16.6301C17.3564 17.4477 17.083 18.2529 16.5435 18.8696C16.004 19.4863 15.2423 19.8643 14.4249 19.9211ZM25.1189 19.9211C24.3015 19.8643 23.5398 19.4863 23.0004 18.8696C22.4609 18.2529 22.1875 17.4477 22.2399 16.6301C22.1875 15.8124 22.4609 15.0072 23.0004 14.3905C23.5398 13.7738 24.3015 13.3958 25.1189 13.3391C25.9363 13.3958 26.698 13.7738 27.2375 14.3905C27.777 15.0072 28.0504 15.8124 27.9979 16.6301C28.0504 17.4476 27.7771 18.2526 27.2379 18.8693C26.6986 19.4859 25.9371 19.8641 25.1199 19.9211H25.1189Z" fill="#4B4B4B"/>
</svg>
