<svg width="36" height="29" viewBox="0 0 36 29" fill="none" xmlns="http://www.w3.org/2000/svg">
<path d="M35.52 4.20205C34.2247 4.77613 32.8508 5.15298 31.444 5.32005C32.9257 4.43448 34.0347 3.0401 34.5639 1.39705C33.1724 2.22143 31.6507 2.80274 30.064 3.11605C28.994 1.98104 27.5801 1.22996 26.0406 0.97885C24.5011 0.727739 22.9218 0.990574 21.5467 1.72675C20.1715 2.46292 19.077 3.63146 18.4324 5.05181C17.7877 6.47217 17.6287 8.0653 17.98 9.58505C15.1587 9.44435 12.3986 8.71172 9.87901 7.43476C7.35938 6.15781 5.13656 4.36508 3.35495 2.17305C2.44931 3.736 2.1727 5.58512 2.58133 7.34467C2.98997 9.10423 4.05319 10.6422 5.55495 11.646C4.42704 11.6112 3.32377 11.3074 2.33695 10.76V10.849C2.33722 12.4868 2.90365 14.074 3.94027 15.3419C4.97689 16.6098 6.41995 17.4803 8.02495 17.806C7.41639 17.9713 6.78854 18.0547 6.15795 18.054C5.70946 18.055 5.26197 18.0118 4.82195 17.925C5.27577 19.3339 6.15803 20.566 7.34567 21.4495C8.5333 22.3329 9.96707 22.8236 11.447 22.853C8.93499 24.8248 5.83236 25.8936 2.63895 25.887C2.07445 25.8879 1.51041 25.8545 0.949951 25.787C4.19209 27.8715 7.96658 28.9766 11.821 28.97C24.867 28.97 32.001 18.163 32.001 8.79305C32.001 8.48605 31.993 8.17605 31.982 7.87405C33.3701 6.86997 34.5681 5.62653 35.52 4.20205Z" fill="#4B4B4B"/>
</svg>
