<svg width="59" height="58" viewBox="0 0 59 58" fill="none" xmlns="http://www.w3.org/2000/svg">
<path d="M45.2571 19.6175C44.0718 20.1376 42.8144 20.479 41.5268 20.6304C42.8832 19.8284 43.8984 18.5652 44.3829 17.0767C43.1083 17.8238 41.7144 18.3503 40.2611 18.6337C39.2835 17.6018 37.9893 16.9181 36.5791 16.6886C35.1689 16.4592 33.7216 16.6967 32.4618 17.3645C31.202 18.0323 30.2 19.0929 29.6113 20.3819C29.0226 21.6708 28.8802 23.116 29.206 24.4933C26.6246 24.3656 24.0991 23.7019 21.7937 22.5452C19.4883 21.3885 17.4545 19.7648 15.8244 17.7794C14.9952 19.1945 14.7414 20.8691 15.1146 22.4627C15.4878 24.0564 16.46 25.4497 17.8336 26.3595C16.8026 26.3272 15.7942 26.0519 14.8923 25.5564V25.6367C14.8929 27.12 15.4114 28.5575 16.3599 29.7058C17.3085 30.8541 18.6288 31.6427 20.0973 31.9381C19.5403 32.0879 18.9656 32.1635 18.3883 32.163C17.9782 32.1646 17.5688 32.1263 17.1662 32.0485C17.5816 33.3247 18.389 34.4406 19.4759 35.2408C20.5628 36.0409 21.8749 36.4852 23.2292 36.5118C20.9305 38.2976 18.0914 39.2654 15.1692 39.2594C14.6526 39.2603 14.1364 39.2301 13.6235 39.169C16.5903 41.0566 20.0442 42.0573 23.571 42.0512C35.5094 42.0512 42.038 32.2633 42.038 23.7755C42.038 23.4975 42.0309 23.2164 42.0207 22.9433C43.2906 22.0338 44.3865 20.9076 45.2571 19.6175V19.6175Z" fill="white"/>
<path d="M57.8383 57.3693H13.6404L1.04187 42.9562V1.15698H43.8928L57.8383 17.1191V57.3684V57.3693Z" stroke="white"/>
</svg>
